<?xml version="1.0" encoding="UTF-8" standalone="no"?>
<svg
   xmlns="http://www.w3.org/2000/svg"
   version="1.1"
   width="70mm"
   height="90mm"
   viewBox="0 0 264.567 340.157">
  
  <!-- Main body - dome/bell shape -->
  <path
     style="fill:#8e6eb9;fill-opacity:1;stroke:none"
     d="M 132.28 20 
        C 60 20 25 80 25 140
        C 25 180 50 210 70 230
        L 70 235
        C 65 240 55 250 50 280
        C 48 295 55 310 70 310
        C 80 310 85 300 85 290
        L 90 250
        L 95 235
        L 105 235
        L 100 270
        C 98 290 100 320 115 325
        C 130 330 140 315 138 295
        L 135 250
        L 132 235
        L 145 235
        L 148 295
        C 150 315 160 330 175 325
        C 190 320 192 290 190 270
        L 185 235
        L 195 235
        L 200 290
        C 205 300 210 310 220 310
        C 235 310 242 295 240 280
        C 235 250 225 240 220 235
        L 220 230
        C 240 210 265 180 265 140
        C 265 80 230 20 132.28 20
        Z" />
  
  <!-- Spots on body -->
  <ellipse style="fill:#734aab;stroke:none" cx="80" cy="100" rx="8" ry="10" />
  <ellipse style="fill:#734aab;stroke:none" cx="110" cy="130" rx="6" ry="7" />
  <ellipse style="fill:#734aab;stroke:none" cx="160" cy="120" rx="9" ry="8" />
  <ellipse style="fill:#734aab;stroke:none" cx="190" cy="150" rx="7" ry="9" />
  <ellipse style="fill:#734aab;stroke:none" cx="140" cy="170" rx="5" ry="6" />
  <ellipse style="fill:#734aab;stroke:none" cx="95" cy="180" rx="8" ry="7" />
  <ellipse style="fill:#734aab;stroke:none" cx="185" cy="190" rx="6" ry="8" />
  <ellipse style="fill:#734aab;stroke:none" cx="70" cy="145" rx="5" ry="5" />
  <ellipse style="fill:#734aab;stroke:none" cx="210" cy="130" rx="4" ry="5" />
  
  <!-- Left eye socket -->
  <ellipse
     style="fill:#000000;fill-opacity:1;stroke:none"
     cx="100" cy="75" rx="28" ry="26" />
  
  <!-- Left eye white -->
  <ellipse
     style="fill:#ffffff;fill-opacity:1;stroke:none"
     cx="100" cy="75" rx="20" ry="18" />
  
  <!-- Left pupil -->
  <ellipse
     style="fill:#000000;fill-opacity:1;stroke:none"
     cx="103" cy="76" rx="10" ry="10" />
  
  <!-- Left eye highlight -->
  <ellipse
     style="fill:#ffffff;fill-opacity:1;stroke:none"
     cx="107" cy="71" rx="4" ry="4" />
  
  <!-- Right eye socket -->
  <ellipse
     style="fill:#000000;fill-opacity:1;stroke:none"
     cx="165" cy="75" rx="28" ry="26" />
  
  <!-- Right eye white -->
  <ellipse
     style="fill:#ffffff;fill-opacity:1;stroke:none"
     cx="165" cy="75" rx="20" ry="18" />
  
  <!-- Right pupil -->
  <ellipse
     style="fill:#000000;fill-opacity:1;stroke:none"
     cx="168" cy="76" rx="10" ry="10" />
  
  <!-- Right eye highlight -->
  <ellipse
     style="fill:#ffffff;fill-opacity:1;stroke:none"
     cx="172" cy="71" rx="4" ry="4" />
  
  <!-- Smile -->
  <path
     style="fill:none;stroke:#000000;stroke-width:3;stroke-linecap:round"
     d="M 115 115 C 120 130 145 130 150 115" />
  
  <!-- Antennae left -->
  <path
     style="fill:none;stroke:#000000;stroke-width:6;stroke-linecap:round"
     d="M 90 30 C 80 10 65 5 55 15" />
  <ellipse
     style="fill:#000000;stroke:none"
     cx="55" cy="15" rx="8" ry="8" />
  
  <!-- Antennae right -->
  <path
     style="fill:none;stroke:#000000;stroke-width:6;stroke-linecap:round"
     d="M 175 30 C 185 10 200 5 210 15" />
  <ellipse
     style="fill:#000000;stroke:none"
     cx="210" cy="15" rx="8" ry="8" />
  
  <!-- Small decorative lines on tentacles -->
  <path style="fill:none;stroke:#734aab;stroke-width:2;stroke-linecap:round" d="M 75 260 L 78 275" />
  <path style="fill:none;stroke:#734aab;stroke-width:2;stroke-linecap:round" d="M 80 280 L 82 292" />
  <path style="fill:none;stroke:#734aab;stroke-width:2;stroke-linecap:round" d="M 120 280 L 118 300" />
  <path style="fill:none;stroke:#734aab;stroke-width:2;stroke-linecap:round" d="M 145 280 L 147 300" />
  <path style="fill:none;stroke:#734aab;stroke-width:2;stroke-linecap:round" d="M 175 260 L 178 275" />
  <path style="fill:none;stroke:#734aab;stroke-width:2;stroke-linecap:round" d="M 210 265 L 212 280" />
  
</svg>
