<?xml version="1.0" encoding="UTF-8" standalone="no"?>
<svg
   xmlns="http://www.w3.org/2000/svg"
   version="1.1"
   width="70mm"
   height="95mm"
   viewBox="0 0 265 359">
  
  <!-- Wispy trailing bottom pieces -->
  <path
     style="fill:#508a67;fill-opacity:1;stroke:none"
     d="M 60 270
        C 50 290 45 320 55 345
        C 60 355 70 358 78 350
        C 88 340 85 315 80 290
        C 78 275 70 265 60 270
        Z" />
  
  <path
     style="fill:#508a67;fill-opacity:1;stroke:none"
     d="M 100 280
        C 95 305 92 330 98 350
        C 102 360 112 362 118 355
        C 126 345 122 320 118 295
        C 115 280 108 272 100 280
        Z" />
  
  <path
     style="fill:#508a67;fill-opacity:1;stroke:none"
     d="M 145 280
        C 150 305 153 330 147 350
        C 143 360 133 362 127 355
        C 119 345 123 320 127 295
        C 130 280 137 272 145 280
        Z" />
  
  <path
     style="fill:#508a67;fill-opacity:1;stroke:none"
     d="M 185 270
        C 195 290 200 320 190 345
        C 185 355 175 358 167 350
        C 157 340 160 315 165 290
        C 167 275 175 265 185 270
        Z" />
  
  <!-- Main body - rounded top with wavy bottom -->
  <path
     style="fill:#508a67;fill-opacity:1;stroke:none"
     d="M 122 15
        C 60 15 25 70 25 140
        C 25 200 45 250 70 275
        C 95 295 145 295 175 275
        C 220 250 240 200 240 140
        C 240 70 200 15 122 15
        Z" />
  
  <!-- Left arm -->
  <path
     style="fill:#508a67;fill-opacity:1;stroke:none"
     d="M 35 150
        C 15 145 5 160 8 180
        C 10 195 25 205 40 198
        C 50 193 50 175 35 150
        Z" />
  <ellipse style="fill:#79bd95;stroke:none" cx="12" cy="178" rx="10" ry="9" />
  
  <!-- Right arm -->
  <path
     style="fill:#508a67;fill-opacity:1;stroke:none"
     d="M 230 150
        C 250 145 260 160 257 180
        C 255 195 240 205 225 198
        C 215 193 215 175 230 150
        Z" />
  <ellipse style="fill:#79bd95;stroke:none" cx="253" cy="178" rx="10" ry="9" />
  
  <!-- Spots on body -->
  <ellipse style="fill:#79bd95;stroke:none" cx="70" cy="120" rx="9" ry="10" />
  <ellipse style="fill:#79bd95;stroke:none" cx="180" cy="110" rx="10" ry="9" />
  <ellipse style="fill:#79bd95;stroke:none" cx="85" cy="200" rx="8" ry="9" />
  <ellipse style="fill:#79bd95;stroke:none" cx="175" cy="195" rx="9" ry="8" />
  <ellipse style="fill:#79bd95;stroke:none" cx="60" cy="165" rx="6" ry="7" />
  <ellipse style="fill:#79bd95;stroke:none" cx="195" cy="160" rx="7" ry="6" />
  <ellipse style="fill:#79bd95;stroke:none" cx="130" cy="240" rx="11" ry="9" />
  
  <!-- Top eye -->
  <ellipse style="fill:#000000;stroke:none" cx="122" cy="70" rx="22" ry="21" />
  <ellipse style="fill:#ffffff;stroke:none" cx="122" cy="70" rx="15" ry="14" />
  <ellipse style="fill:#000000;stroke:none" cx="125" cy="71" rx="7" ry="7" />
  <ellipse style="fill:#ffffff;stroke:none" cx="128" cy="67" rx="3" ry="3" />
  
  <!-- Middle eye (largest) -->
  <ellipse style="fill:#000000;stroke:none" cx="122" cy="130" rx="35" ry="33" />
  <ellipse style="fill:#ffffff;stroke:none" cx="122" cy="130" rx="25" ry="24" />
  <ellipse style="fill:#000000;stroke:none" cx="126" cy="132" rx="13" ry="13" />
  <ellipse style="fill:#ffffff;stroke:none" cx="131" cy="126" rx="5" ry="5" />
  
  <!-- Bottom eye -->
  <ellipse style="fill:#000000;stroke:none" cx="122" cy="190" rx="18" ry="17" />
  <ellipse style="fill:#ffffff;stroke:none" cx="122" cy="190" rx="12" ry="11" />
  <ellipse style="fill:#000000;stroke:none" cx="124" cy="191" rx="6" ry="6" />
  <ellipse style="fill:#ffffff;stroke:none" cx="126" cy="188" rx="2.5" ry="2.5" />
  
  <!-- Small smile below bottom eye -->
  <path
     style="fill:none;stroke:#000000;stroke-width:3;stroke-linecap:round"
     d="M 105 215 C 115 225 130 225 140 215" />
  
  <!-- Floating halo/ring above head -->
  <ellipse style="fill:none;stroke:#79bd95;stroke-width:6" cx="122" cy="8" rx="30" ry="8" />
  
</svg>
